<svg width="243" height="185" viewBox="0 0 243 185" fill="none" xmlns="http://www.w3.org/2000/svg">
<g clip-path="url(#clip0)">
<path d="M107.941 42.0666C97.9387 42.0742 88.006 40.4344 78.5548 37.2152C65.8843 32.9068 55.5043 26.9641 47.7034 19.5521C32.9471 5.53154 20.8492 3.41858 13.3003 4.11433C5.12866 4.86782 0.372142 8.98317 0.325074 9.02466L0 8.66826C0.0480167 8.62583 4.90259 4.41708 13.2233 3.64056C18.1027 3.18549 23.2053 3.97838 28.3898 5.99795C34.8551 8.51641 41.467 12.9608 48.0417 19.2077C55.7912 26.5709 66.1109 32.4773 78.7138 36.7626C101.85 44.6296 127.926 42.7249 150.254 31.5368C157.647 27.8322 164.954 25.3036 171.971 24.0212C180.82 22.4036 189.213 22.779 196.917 25.1363C213.846 30.3162 225.41 30.0415 232.129 28.8995C239.379 27.667 242.669 25.2006 242.701 25.1758L243 25.5537C242.864 25.6579 239.581 28.1186 232.212 29.3712C225.439 30.5226 213.793 30.8016 196.772 25.5934C179.538 20.3208 162.083 26.1469 150.475 31.9632C139.439 37.5226 127.388 40.8661 115.025 41.7989C112.655 41.9772 110.294 42.0665 107.941 42.0666Z" fill="#3F3D56"/>
<path d="M106.957 48.0077C109.682 48.0077 111.89 45.8353 111.89 43.1556C111.89 40.4759 109.682 38.3036 106.957 38.3036C104.232 38.3036 102.023 40.4759 102.023 43.1556C102.023 45.8353 104.232 48.0077 106.957 48.0077Z" fill="#ED8936"/>
<path d="M183.391 28.6165C186.115 28.6165 188.324 26.4442 188.324 23.7645C188.324 21.0847 186.115 18.9124 183.391 18.9124C180.666 18.9124 178.457 21.0847 178.457 23.7645C178.457 26.4442 180.666 28.6165 183.391 28.6165Z" fill="#ED8936"/>
<path d="M24.4374 9.70408C27.1622 9.70408 29.371 7.53175 29.371 4.85204C29.371 2.17233 27.1622 0 24.4374 0C21.7127 0 19.5039 2.17233 19.5039 4.85204C19.5039 7.53175 21.7127 9.70408 24.4374 9.70408Z" fill="#ED8936"/>
<path d="M142.336 115.984V162.864H149.831V120.112H179.811V162.864H187.306V69.1034H179.811C177.327 69.1034 173.515 81.8247 173.515 94.6076C173.515 104.243 174.659 112.5 176.286 115.984H142.336ZM179.811 115.984H179.738C179.762 115.931 179.786 115.876 179.811 115.822V115.984Z" fill="#3F3D56"/>
<path d="M170.112 45.8993H170.112C163.96 45.8993 158.973 51.3427 158.973 58.0574V66.5885H161.641L163.185 63.4277L162.799 66.5885H179.947L181.351 63.715L181 66.5885H182.931V59.8901C182.931 52.1632 177.192 45.8993 170.112 45.8993Z" fill="#2F2E41"/>
<path d="M157.349 101.637L150.51 104.496L126.743 123.498C125.869 124.555 125.333 125.842 125.204 127.198C125.033 129.384 117.851 140.819 120.416 142.333C122.981 143.846 132.214 148.387 132.727 145.36C133.24 142.333 135.976 129.384 135.976 129.384L158.888 109.205L157.349 101.637Z" fill="#2F2E41"/>
<path d="M130.501 142.837L127.594 151.245C127.594 151.245 130.672 154.44 129.133 157.131V166.38H126.739L126.055 161.503C126.055 161.503 123.329 166.318 121.951 166.38C119.065 166.509 113.348 167.519 113.177 166.006C113.006 164.492 117.506 163.017 117.506 163.017L122.293 150.068L124.345 142.165L130.501 142.837Z" fill="#2F2E41"/>
<path d="M175.13 99.4511C175.13 99.4511 176.669 114.249 172.223 116.94C167.778 119.631 148.114 128.207 148.114 128.207C148.114 128.207 156.493 135.943 154.783 137.792C153.073 139.642 145.378 144.687 144.352 143.678C143.326 142.669 131.87 130.561 133.238 126.694C134.606 122.826 153.586 110.214 153.586 110.214L155.809 102.31L156.493 95.9197L163.674 91.3793L175.13 99.4511Z" fill="#2F2E41"/>
<path d="M167.296 64.9967C171.233 64.9967 174.424 61.8581 174.424 57.9863C174.424 54.1145 171.233 50.9759 167.296 50.9759C163.359 50.9759 160.168 54.1145 160.168 57.9863C160.168 61.8581 163.359 64.9967 167.296 64.9967Z" fill="#FFB9B9"/>
<path d="M172.821 60.8576C172.821 60.8576 172.479 67.2478 177.779 69.2658C183.08 71.2838 164.613 84.4005 164.613 84.4005V69.7703C164.613 69.7703 167.007 67.2478 164.613 63.3801L172.821 60.8576Z" fill="#FFB9B9"/>
<path d="M184.191 90.8748L182.823 97.4332L178.719 119.967C178.719 119.967 182.139 129.552 177.522 129.384C172.906 129.216 175.129 118.958 175.129 118.958L177.522 100.292V93.0609L184.191 90.8748Z" fill="#FFB9B9"/>
<path d="M154.783 87.6797L153.244 93.5654L146.234 110.214C146.234 110.214 141.446 118.117 145.379 117.949C149.312 117.781 149.312 110.214 149.312 110.214L157.348 96.7605V89.1931L154.783 87.6797Z" fill="#FFB9B9"/>
<path d="M153.585 136.783L159.227 141.996C159.227 141.996 163.16 141.156 164.699 145.696C166.238 150.236 167.264 153.095 167.264 153.095L165.212 154.272L162.647 150.741C162.647 150.741 161.108 157.131 159.569 157.636C158.031 158.14 150.336 161.503 151.02 157.636L154.782 152.254C154.782 152.254 155.295 146.2 153.756 145.696C152.217 145.192 148.113 140.147 148.113 140.147L153.585 136.783Z" fill="#2F2E41"/>
<path d="M175.402 104.664C175.402 104.664 159.329 98.9466 158.303 99.4511C157.539 99.7829 156.726 99.9905 155.895 100.066L155.909 97.7695C155.909 97.7695 161.21 95.9197 164.117 97.0968C167.023 98.274 175.915 103.487 175.915 103.487L175.402 104.664Z" fill="#3F3D56"/>
<path d="M165.638 81.0372C165.638 81.0372 170.255 75.8242 171.623 72.6291C172.488 70.6921 174.077 69.1558 176.061 68.3374C176.061 68.3374 186.328 70.6111 186.157 74.647C185.986 78.6829 179.659 84.905 179.659 84.905C179.659 84.905 180.514 107.271 175.898 106.934C174.902 105.766 174.199 104.383 173.846 102.898C173.333 100.544 157.431 98.0217 157.431 98.0217C157.431 98.0217 156.063 100.376 155.892 99.367C155.721 98.3581 157.26 73.638 157.26 73.638L165.414 68.3374L165.638 81.0372Z" fill="#D0CDE1"/>
<path d="M184.842 73.0225L184.957 73.0857C185.322 73.2874 185.627 73.5811 185.838 73.9368C186.05 74.2924 186.162 74.6971 186.162 75.1092L186.16 87.5891C186.161 87.9284 186.237 88.2632 186.383 88.5706C186.529 88.8779 186.742 89.1503 187.006 89.3688C187.664 89.9198 188.275 90.7138 187.015 91.127C184.963 91.7997 176.926 95.1629 176.755 93.9858C176.584 92.8086 176.242 91.4633 176.755 91.4633C177.157 91.4633 179.55 79.4047 181.472 74.2488C181.59 73.9332 181.775 73.6464 182.017 73.4083C182.258 73.1702 182.549 72.9865 182.869 72.8698C183.19 72.7532 183.532 72.7065 183.873 72.7328C184.214 72.7592 184.544 72.858 184.842 73.0225Z" fill="#D0CDE1"/>
<path d="M159.568 73.0495L157.175 73.7221L154.439 85.3254C154.439 85.3254 151.19 85.9981 152.216 87.1752C153.242 88.3523 157.517 91.3793 157.517 91.3793L159.568 73.0495Z" fill="#D0CDE1"/>
<path d="M173.276 49.2484C172.74 48.5405 172.045 47.9636 171.246 47.5624C170.446 47.1612 169.564 46.9465 168.666 46.935H168.447C164.231 46.935 160.812 50.6876 160.812 55.3166V55.3167H162.225L162.454 53.6085L162.788 55.3167H171.168L171.87 53.8715L171.695 55.3167H173.343C174.112 59.074 173.007 62.8313 170.027 66.5885H172.835L174.24 63.6983L173.889 66.5885H179.242L180.295 59.941C180.295 54.9626 177.354 50.741 173.276 49.2484Z" fill="#2F2E41"/>
<path d="M30.0707 126.816C31.8696 122.964 33.1346 113.834 33.1346 103.181C33.1346 89.047 28.9197 74.9814 26.1736 74.9814H17.8867V178.65H26.1736V131.38H59.3213V178.65H67.6082V126.816H30.0707ZM26.1736 126.636C26.2004 126.696 26.2271 126.758 26.2542 126.816H26.1736V126.636Z" fill="#3F3D56"/>
<path d="M64.6122 107.903C64.6122 107.903 74.5924 111.973 71.4279 114.367C68.2635 116.761 61.6912 111.494 61.9346 110.776C62.178 110.058 60.9609 108.382 60.9609 108.382L64.6122 107.903Z" fill="#9F616A"/>
<path d="M55.8499 75.824L59.0143 78.6967L59.7446 87.0757L62.1788 95.9334C62.1788 95.9334 66.3169 104.312 65.5866 105.988C64.8564 107.664 66.3169 108.143 66.3169 108.143L60.7183 110.297C60.7183 110.297 54.6328 103.594 54.6328 102.158C54.6328 100.721 55.8499 75.824 55.8499 75.824Z" fill="#575A88"/>
<path opacity="0.1" d="M55.8499 75.824L59.0143 78.6967L59.7446 87.0757L62.1788 95.9334C62.1788 95.9334 66.3169 104.312 65.5866 105.988C64.8564 107.664 66.3169 108.143 66.3169 108.143L60.7183 110.297C60.7183 110.297 54.6328 103.594 54.6328 102.158C54.6328 100.721 55.8499 75.824 55.8499 75.824Z" fill="black"/>
<path d="M85.7897 162.007C85.7897 162.007 84.5726 167.513 84.3291 167.992C84.0857 168.471 88.9541 170.147 88.9541 170.147L94.7961 166.077C94.7961 166.077 92.3619 160.81 92.3619 159.853L85.7897 162.007Z" fill="#575A88"/>
<path d="M53.9005 108.382L55.6044 110.297C55.6044 110.297 90.9001 114.606 91.6303 121.31C92.3606 128.013 97.4723 159.613 94.5513 160.571C91.6303 161.528 84.0844 165.119 84.0844 163.204C84.0844 161.289 79.216 134.955 80.1897 130.167C80.1897 130.167 38.0783 124.9 37.1047 118.916C36.131 112.931 38.0783 110.297 38.0783 110.297L53.9005 108.382Z" fill="#2F2E41"/>
<path opacity="0.1" d="M53.9005 108.382L55.6044 110.297C55.6044 110.297 90.9001 114.606 91.6303 121.31C92.3606 128.013 97.4723 159.613 94.5513 160.571C91.6303 161.528 84.0844 165.119 84.0844 163.204C84.0844 161.289 79.216 134.955 80.1897 130.167C80.1897 130.167 38.0783 124.9 37.1047 118.916C36.131 112.931 38.0783 110.297 38.0783 110.297L53.9005 108.382Z" fill="black"/>
<path d="M85.3011 167.513C85.3011 167.513 84.3274 165.359 83.8406 166.077C83.3537 166.795 81.6498 175.174 83.3537 175.174C85.0576 175.174 100.636 179.004 102.827 178.526C105.018 178.047 109.156 178.765 108.669 176.371C108.182 173.977 105.748 173.738 105.748 173.738C105.748 173.738 96.7417 168.471 96.2549 165.837C95.768 163.204 93.0904 164.64 93.0904 164.64V166.316C93.0904 166.316 87.9787 170.147 85.3011 167.513Z" fill="#2F2E41"/>
<path d="M39.0533 57.6298C39.0533 57.6298 40.7572 65.7693 37.106 66.4875C33.4547 67.2057 41.7309 71.9936 41.7309 71.9936L47.0861 74.8664L50.9808 71.036C50.9808 71.036 47.4512 63.9738 50.1288 58.707C52.8064 53.4403 39.0533 57.6298 39.0533 57.6298Z" fill="#9F616A"/>
<path d="M50.9808 71.036L47.0861 74.8664L41.7309 71.9936C41.7309 71.9936 33.4547 67.2057 37.106 66.4875C39.4549 66.0254 39.5864 62.4919 39.3844 60.0309C39.3184 59.2252 39.2079 58.4236 39.0533 57.6298C39.0533 57.6298 52.8064 53.4403 50.1288 58.707C49.722 59.5203 49.4398 60.3884 49.2915 61.283C48.4711 66.0158 50.9808 71.036 50.9808 71.036Z" fill="#9F616A"/>
<path d="M64.6094 168.95V174.456H73.8592L74.5895 172.301L73.6158 166.556L64.6094 168.95Z" fill="#575A88"/>
<path d="M26.3945 113.17C26.3945 113.17 26.3945 127.294 32.2366 127.773C38.0786 128.252 59.0126 130.885 59.0126 130.885C59.0126 130.885 60.2296 154.346 62.4204 162.007C64.6112 169.668 62.6638 170.147 64.6112 170.625C66.5585 171.104 74.8347 169.428 74.5913 167.753C74.3479 166.077 73.3742 123.703 73.3742 123.703C73.3742 123.703 75.565 114.606 46.3548 110.297L26.3945 113.17Z" fill="#2F2E41"/>
<path d="M65.3422 172.78C65.3422 172.78 63.8817 169.668 63.6383 170.625C63.3949 171.583 60.4738 179.962 63.3949 180.68C66.3159 181.398 75.5658 185.229 81.6512 184.989C87.7367 184.75 88.4669 184.51 88.4669 184.51C88.4669 184.51 90.1709 182.116 87.9801 180.68C85.7893 179.244 76.7829 170.865 76.296 169.907C75.8092 168.95 72.1579 168.231 72.1579 169.907C72.1579 171.583 67.0461 174.935 65.3422 172.78Z" fill="#2F2E41"/>
<path opacity="0.1" d="M50.1263 58.707C49.7195 59.5203 49.4373 60.3884 49.289 61.283C48.0767 62.0035 47.2661 61.8192 45.7448 61.8192C43.4883 61.8192 42.5779 58.9824 41.1198 57.5101C41.0054 56.1431 39.0508 57.6298 39.0508 57.6298C39.0508 57.6298 52.8039 53.4403 50.1263 58.707Z" fill="black"/>
<path d="M45.1383 61.6995C49.5747 61.6995 53.1711 58.1625 53.1711 53.7994C53.1711 49.4363 49.5747 45.8993 45.1383 45.8993C40.7019 45.8993 37.1055 49.4363 37.1055 53.7994C37.1055 58.1625 40.7019 61.6995 45.1383 61.6995Z" fill="#9F616A"/>
<path d="M59.0144 78.6967C59.0144 78.6967 57.7973 87.315 57.067 90.4272C56.3368 93.5394 55.3631 107.903 54.8762 109.818C54.3894 111.734 51.4684 112.212 45.6264 111.494C45.2596 111.449 44.8908 111.422 44.5212 111.413C40.9235 111.3 36.8073 112.624 32.9978 113.663C30.8071 114.262 28.7161 114.764 26.8832 114.846C24.1082 114.97 23.2952 111.944 23.3901 108.669C23.4802 105.622 24.3589 102.354 25.1792 101.2C26.6568 99.1221 25.2036 80.4659 25.7489 74.3134V74.311C25.8316 73.3725 25.9606 72.7262 26.1529 72.4724C27.6134 70.5572 37.1067 65.7693 38.1705 65.9632C39.2318 66.1571 48.304 71.7542 48.304 71.7542C50.4947 71.7542 50.4241 69.4177 50.4241 69.4177C50.4241 69.4177 51.9552 72.233 54.8762 72.9512C57.7973 73.6694 59.0144 78.6967 59.0144 78.6967Z" fill="#575A88"/>
<path d="M42.7409 109.733C42.7409 109.733 58.4209 110.224 55.6741 112.056C52.9273 113.888 40.7564 115.564 40.513 113.17C40.2695 110.776 42.7409 109.733 42.7409 109.733Z" fill="#9F616A"/>
<path opacity="0.1" d="M44.5178 111.413C44.569 112.332 42.0545 114.403 41.2414 115.803C40.7911 116.579 37.3054 115.557 32.9944 113.663C29.6863 112.203 26.4771 110.535 23.3867 108.669C23.4768 105.622 24.3555 102.354 25.1758 101.2C26.6534 99.1221 25.2002 80.4659 25.7455 74.3134V74.311C25.8755 74.2461 26.0106 74.1916 26.1495 74.1482H29.0705C39.0507 78.6967 27.61 98.3273 27.61 98.3273C27.61 98.3273 42.7019 110.537 44.1624 111.015C44.2582 111.033 44.3452 111.082 44.4096 111.154C44.474 111.226 44.5121 111.317 44.5178 111.413Z" fill="black"/>
<path d="M29.0719 72.7118H26.1509C26.1509 72.7118 23.4733 73.43 21.2825 78.2179C19.0918 83.0059 11.059 97.8485 18.1181 103.594C25.1772 109.34 40.2692 116.043 41.2428 114.367C42.2165 112.691 45.6243 110.058 44.1638 109.579C42.7033 109.1 27.6114 96.891 27.6114 96.891C27.6114 96.891 39.0521 77.2603 29.0719 72.7118Z" fill="#575A88"/>
<path d="M43.9025 50.1233C43.9025 50.1233 44.255 45.324 48.6038 47.2809C52.9527 49.2378 52.6689 43.8439 51.3547 42.8908C50.0405 41.9376 50.0821 41.7017 45.2756 42.3395C40.4691 42.9772 31.1374 44.0577 34.1548 53.5625C37.1721 63.0674 39.9048 60.6222 39.9048 60.6222C39.9048 60.6222 37.5064 52.0691 39.9365 53.6986L42.3667 55.3281L43.6491 55.061L43.9025 50.1233Z" fill="#2F2E41"/>
<path d="M223.346 119.231C223.346 114.91 190.696 111.407 150.421 111.407C110.146 111.407 77.4961 114.91 77.4961 119.231C77.4961 120.906 82.4032 122.457 90.7552 123.73V177.259H94.7329V124.282C108.11 125.978 128.091 127.055 150.421 127.055C172.935 127.055 193.063 125.96 206.44 124.24V177.259H210.418V123.679C218.567 122.416 223.346 120.883 223.346 119.231Z" fill="#3F3D56"/>
<path d="M159.556 119.394C167.756 119.394 174.404 117.787 174.404 115.803C174.404 113.82 167.756 112.212 159.556 112.212C151.355 112.212 144.707 113.82 144.707 115.803C144.707 117.787 151.355 119.394 159.556 119.394Z" fill="#F2F2F2"/>
<path d="M159.554 118.747C166.276 118.747 171.725 117.429 171.725 115.803C171.725 114.178 166.276 112.86 159.554 112.86C152.832 112.86 147.383 114.178 147.383 115.803C147.383 117.429 152.832 118.747 159.554 118.747Z" fill="#D0CDE1"/>
<path d="M104.302 122.267C112.502 122.267 119.15 120.659 119.15 118.676C119.15 116.693 112.502 115.085 104.302 115.085C96.101 115.085 89.4531 116.693 89.4531 118.676C89.4531 120.659 96.101 122.267 104.302 122.267Z" fill="#F2F2F2"/>
<path d="M104.3 121.62C111.022 121.62 116.471 120.302 116.471 118.676C116.471 117.051 111.022 115.733 104.3 115.733C97.578 115.733 92.1289 117.051 92.1289 118.676C92.1289 120.302 97.578 121.62 104.3 121.62Z" fill="#D0CDE1"/>
<path d="M157.299 108.176C156.974 108.309 156.626 108.377 156.275 108.377C155.923 108.377 155.575 108.309 155.25 108.176C155.575 108.043 155.923 107.974 156.275 107.974C156.626 107.974 156.974 108.043 157.299 108.176Z" fill="#D0CDE1"/>
<path d="M159.35 109C159.025 109.133 158.677 109.202 158.325 109.202C157.974 109.202 157.625 109.133 157.301 109C157.625 108.867 157.974 108.799 158.325 108.799C158.677 108.799 159.025 108.867 159.35 109Z" fill="#D0CDE1"/>
<path d="M159.537 107.535C159.213 107.668 158.864 107.736 158.513 107.736C158.161 107.736 157.813 107.668 157.488 107.535C157.813 107.402 158.161 107.333 158.513 107.333C158.864 107.333 159.213 107.402 159.537 107.535Z" fill="#D0CDE1"/>
<path d="M163.354 107.535C163.029 107.668 162.681 107.736 162.329 107.736C161.978 107.736 161.629 107.668 161.305 107.535C161.629 107.402 161.978 107.333 162.329 107.333C162.681 107.333 163.029 107.402 163.354 107.535Z" fill="#D0CDE1"/>
<path d="M162.33 108.359C162.006 108.492 161.657 108.561 161.306 108.561C160.954 108.561 160.606 108.492 160.281 108.359C160.606 108.226 160.954 108.158 161.306 108.158C161.657 108.158 162.006 108.226 162.33 108.359Z" fill="#D0CDE1"/>
<path d="M102.287 111.049C101.963 111.182 101.615 111.25 101.263 111.25C100.911 111.25 100.563 111.182 100.238 111.049C100.563 110.916 100.911 110.847 101.263 110.847C101.615 110.847 101.963 110.916 102.287 111.049Z" fill="#D0CDE1"/>
<path d="M104.338 111.873C104.014 112.006 103.665 112.075 103.314 112.075C102.962 112.075 102.614 112.006 102.289 111.873C102.614 111.74 102.962 111.672 103.314 111.672C103.665 111.672 104.014 111.74 104.338 111.873Z" fill="#D0CDE1"/>
<path d="M104.526 110.407C104.201 110.54 103.853 110.609 103.501 110.609C103.149 110.609 102.801 110.54 102.477 110.407C102.801 110.274 103.149 110.206 103.501 110.206C103.853 110.206 104.201 110.274 104.526 110.407Z" fill="#D0CDE1"/>
<path d="M108.342 110.407C108.017 110.54 107.669 110.609 107.318 110.609C106.966 110.609 106.618 110.54 106.293 110.407C106.618 110.274 106.966 110.206 107.318 110.206C107.669 110.206 108.017 110.274 108.342 110.407Z" fill="#D0CDE1"/>
<path d="M107.319 111.232C106.994 111.365 106.646 111.433 106.294 111.433C105.942 111.433 105.594 111.365 105.27 111.232C105.594 111.099 105.942 111.03 106.294 111.03C106.646 111.03 106.994 111.099 107.319 111.232Z" fill="#D0CDE1"/>
<path opacity="0.1" d="M165.264 116.471L166.605 116.8L167.014 117.724C166.993 117.744 166.973 117.766 166.956 117.789L165.157 117.402L165.152 116.53C165.152 116.53 165.177 116.516 165.225 116.491C165.236 116.485 165.25 116.478 165.264 116.471Z" fill="white"/>
<path opacity="0.1" d="M110.979 119.583L112.32 119.912L112.728 120.836C112.707 120.856 112.688 120.878 112.671 120.901L110.872 120.514L110.867 119.642C110.867 119.642 110.892 119.629 110.94 119.603C110.951 119.597 110.965 119.59 110.979 119.583Z" fill="white"/>
<path d="M199.381 92.619C198.998 92.2425 198.549 91.9372 198.055 91.718V82.4159C198.055 82.3068 198.011 82.2022 197.933 82.1251C197.854 82.048 197.748 82.0046 197.637 82.0046H195.295C195.185 82.0046 195.078 82.048 195 82.1251C194.921 82.2022 194.877 82.3068 194.877 82.4159V91.5395C194.031 91.8156 193.294 92.3469 192.772 93.0579C192.25 93.7689 191.969 94.6236 191.969 95.5006V115.455C191.969 115.695 192.017 115.933 192.11 116.155C192.204 116.376 192.341 116.578 192.513 116.748C192.686 116.918 192.891 117.052 193.117 117.144C193.342 117.236 193.584 117.283 193.828 117.283H198.844C199.334 117.283 199.805 117.092 200.152 116.75C200.499 116.409 200.694 115.946 200.694 115.463V95.7358C200.695 95.1568 200.579 94.5834 200.354 94.0485C200.129 93.5136 199.798 93.0278 199.381 92.619Z" fill="#3F3D56"/>
<path d="M200.694 98.4257H191.969V109.762H200.694V98.4257Z" fill="#7A7DB2"/>
<path d="M198.242 82.6403H198.054V82.4159C198.054 82.3068 198.01 82.2022 197.931 82.1251C197.853 82.048 197.747 82.0046 197.636 82.0046H195.294C195.183 82.0046 195.077 82.048 194.998 82.1251C194.92 82.2022 194.876 82.3068 194.876 82.4159V82.6403H194.688V83.5938H194.876V88.4671H198.054V83.5938H198.242V82.6403Z" fill="#ED8936"/>
<path d="M129.515 100.693C129.284 100.208 129.102 99.8655 129.038 99.7475C125.122 100.698 122.509 99.8948 122.096 99.7527C121.895 100.127 120.637 102.519 120.128 104.813C119.669 106.882 119.936 108.269 120.921 108.936L120.95 108.956L120.956 108.96C122.044 109.665 123.081 110.289 124.04 110.815C124.169 110.886 124.29 110.952 124.405 111.012L124.417 111.019L124.426 111.03C124.557 111.193 124.68 111.362 124.792 111.539C125.004 111.83 125.133 112.171 125.164 112.528V122.804L125.098 122.805C122.6 122.855 121.054 123.272 121.054 123.629C121.054 124.021 122.908 124.457 125.569 124.457C128.23 124.457 130.084 124.021 130.084 123.629C130.084 123.277 128.564 122.863 126.108 122.807L126.041 122.806L126.103 113.3C126.105 112.657 126.257 112.022 126.548 111.446C126.597 111.349 126.651 111.255 126.706 111.166C126.751 111.094 126.798 111.025 126.847 110.959L126.855 110.947L126.869 110.94C126.992 110.873 127.122 110.802 127.261 110.725L127.277 110.716C128.184 110.212 129.161 109.622 130.181 108.96C131.093 108.369 131.41 107.175 131.124 105.411C130.852 103.729 130.099 101.917 129.515 100.693Z" fill="#D0CDE1"/>
<path d="M129.749 108.745C128.679 109.438 127.796 109.959 127.12 110.333H127.12C126.134 110.267 125.145 110.294 124.164 110.415C123.472 110.035 122.538 109.49 121.388 108.745C121.377 108.738 121.366 108.73 121.355 108.723V108.722C120.301 108.009 120.275 106.498 120.618 104.954C121.491 104.858 122.882 104.9 124.751 105.557C126.964 106.334 129.281 105.895 130.624 105.495C130.844 106.858 130.71 108.122 129.749 108.745Z" fill="#ED8936"/>
<path d="M123.389 104.395C123.556 104.395 123.692 104.261 123.692 104.097C123.692 103.932 123.556 103.799 123.389 103.799C123.222 103.799 123.086 103.932 123.086 104.097C123.086 104.261 123.222 104.395 123.389 104.395Z" fill="#ED8936"/>
<path d="M122.541 107.136C122.709 107.136 122.844 107.002 122.844 106.838C122.844 106.673 122.709 106.54 122.541 106.54C122.374 106.54 122.238 106.673 122.238 106.838C122.238 107.002 122.374 107.136 122.541 107.136Z" fill="white"/>
<path d="M124.115 104.991C124.216 104.991 124.297 104.911 124.297 104.812C124.297 104.713 124.216 104.633 124.115 104.633C124.015 104.633 123.934 104.713 123.934 104.812C123.934 104.911 124.015 104.991 124.115 104.991Z" fill="#ED8936"/>
<path d="M124.842 108.387C124.942 108.387 125.024 108.307 125.024 108.208C125.024 108.11 124.942 108.03 124.842 108.03C124.742 108.03 124.66 108.11 124.66 108.208C124.66 108.307 124.742 108.387 124.842 108.387Z" fill="white"/>
<path d="M123.568 108.566C123.669 108.566 123.75 108.486 123.75 108.387C123.75 108.288 123.669 108.208 123.568 108.208C123.468 108.208 123.387 108.288 123.387 108.387C123.387 108.486 123.468 108.566 123.568 108.566Z" fill="white"/>
<path d="M127.268 102.607C127.368 102.607 127.449 102.527 127.449 102.428C127.449 102.33 127.368 102.25 127.268 102.25C127.167 102.25 127.086 102.33 127.086 102.428C127.086 102.527 127.167 102.607 127.268 102.607Z" fill="#ED8936"/>
<path d="M143.726 91.0056C143.495 90.5209 143.313 90.178 143.249 90.0601C139.333 91.0106 136.719 90.2074 136.307 90.0653C136.106 90.4396 134.848 92.832 134.339 95.1257C133.88 97.1947 134.147 98.5817 135.132 99.2482L135.161 99.2687L135.167 99.2729C136.255 99.9777 137.292 100.602 138.25 101.128C138.38 101.199 138.501 101.264 138.616 101.325L138.628 101.331L138.637 101.342C138.768 101.505 138.891 101.675 139.003 101.851C139.215 102.142 139.344 102.484 139.375 102.841V113.116L139.309 113.118C136.811 113.168 135.265 113.585 135.265 113.942C135.265 114.333 137.119 114.77 139.78 114.77C142.44 114.77 144.295 114.333 144.295 113.942C144.295 113.59 142.775 113.176 140.319 113.12L140.252 113.118L140.314 103.613C140.316 102.969 140.468 102.335 140.759 101.758C140.808 101.661 140.862 101.567 140.917 101.478C140.962 101.407 141.009 101.337 141.057 101.271L141.066 101.259L141.08 101.252C141.203 101.186 141.333 101.114 141.472 101.037L141.488 101.029C142.395 100.525 143.372 99.9343 144.392 99.2727C145.304 98.6819 145.621 97.4879 145.335 95.7238C145.063 94.0419 144.31 92.2297 143.726 91.0056Z" fill="#D0CDE1"/>
<path d="M143.96 99.0573C142.89 99.7509 142.007 100.271 141.331 100.646H141.331C140.345 100.58 139.355 100.607 138.375 100.728C137.683 100.347 136.748 99.8021 135.599 99.0573C135.588 99.0502 135.577 99.043 135.566 99.0353V99.0347C134.512 98.3214 134.486 96.8109 134.829 95.2664C135.702 95.171 137.093 95.2127 138.962 95.8694C141.175 96.647 143.492 96.2072 144.835 95.8074C145.055 97.1702 144.921 98.4346 143.96 99.0573Z" fill="#ED8936"/>
<path d="M137.6 94.7074C137.767 94.7074 137.903 94.5741 137.903 94.4095C137.903 94.245 137.767 94.1116 137.6 94.1116C137.432 94.1116 137.297 94.245 137.297 94.4095C137.297 94.5741 137.432 94.7074 137.6 94.7074Z" fill="#ED8936"/>
<path d="M136.752 97.4485C136.919 97.4485 137.055 97.3151 137.055 97.1505C137.055 96.986 136.919 96.8526 136.752 96.8526C136.585 96.8526 136.449 96.986 136.449 97.1505C136.449 97.3151 136.585 97.4485 136.752 97.4485Z" fill="white"/>
<path d="M138.326 95.3033C138.427 95.3033 138.508 95.2233 138.508 95.1245C138.508 95.0258 138.427 94.9458 138.326 94.9458C138.226 94.9458 138.145 95.0258 138.145 95.1245C138.145 95.2233 138.226 95.3033 138.326 95.3033Z" fill="#ED8936"/>
<path d="M139.053 98.6998C139.153 98.6998 139.235 98.6197 139.235 98.521C139.235 98.4223 139.153 98.3423 139.053 98.3423C138.953 98.3423 138.871 98.4223 138.871 98.521C138.871 98.6197 138.953 98.6998 139.053 98.6998Z" fill="white"/>
<path d="M137.779 98.8786C137.88 98.8786 137.961 98.7985 137.961 98.6998C137.961 98.6011 137.88 98.521 137.779 98.521C137.679 98.521 137.598 98.6011 137.598 98.6998C137.598 98.7985 137.679 98.8786 137.779 98.8786Z" fill="white"/>
<path d="M141.479 92.9198C141.579 92.9198 141.66 92.8398 141.66 92.7411C141.66 92.6423 141.579 92.5623 141.479 92.5623C141.378 92.5623 141.297 92.6423 141.297 92.7411C141.297 92.8398 141.378 92.9198 141.479 92.9198Z" fill="#ED8936"/>
<g clip-path="url(#clip1)">
<path d="M108.937 119.145L108.756 116.025C108.577 112.944 105.647 110.588 102.244 110.79C98.8422 110.991 96.2052 113.677 96.3843 116.758L96.4952 118.666C96.5341 119.335 97.1646 119.842 97.9034 119.798L108.937 119.145Z" fill="#FFA733"/>
<path d="M100.13 109.838C99.4789 109.832 98.9207 110.166 98.6447 110.648C98.5286 110.85 98.3267 111.006 98.0841 111.065C97.7858 111.138 97.5054 111.286 97.2807 111.509C96.9244 111.861 96.7857 112.324 96.8584 112.759C96.8988 113 96.8172 113.246 96.6299 113.425C96.2676 113.77 96.0735 114.257 96.1603 114.774C96.2829 115.504 96.9663 116.062 97.7817 116.096C98.8431 116.139 101.774 112.018 101.713 111.196C101.657 110.443 100.963 109.846 100.13 109.838Z" fill="#AA6100"/>
<path d="M100.133 109.839C99.4817 109.833 98.9235 110.167 98.6475 110.649C98.5314 110.851 98.3295 111.007 98.0869 111.066C97.8825 111.116 97.6865 111.201 97.511 111.321C97.2321 112.33 97.2978 113.805 99.0837 115.243C100.312 114 101.759 111.777 101.716 111.196C101.66 110.444 100.966 109.847 100.133 109.839Z" fill="#CC7400"/>
<path d="M98.4838 119.764C99.3091 119.715 99.943 119.07 99.8995 118.323C99.8561 117.575 99.1518 117.009 98.3264 117.058C97.5011 117.107 96.8673 117.752 96.9107 118.499C96.9542 119.247 97.6585 119.813 98.4838 119.764Z" fill="#D80027"/>
<path d="M98.3267 117.058C97.6448 117.098 97.094 117.546 96.9476 118.122C97.1597 118.676 97.7586 119.056 98.4406 119.016C99.1225 118.976 99.6733 118.528 99.8198 117.952C99.6076 117.397 99.0087 117.017 98.3267 117.058Z" fill="#C70024"/>
<path d="M98.3783 117.962C99.2037 117.913 99.8375 117.267 99.794 116.52C99.7506 115.772 99.0463 115.206 98.221 115.255C97.3956 115.304 96.7618 115.949 96.8052 116.697C96.8487 117.444 97.553 118.01 98.3783 117.962Z" fill="#FF3F62"/>
<path d="M96.8022 116.645C97.0702 117.083 97.6003 117.365 98.1928 117.33C98.9989 117.282 99.622 116.666 99.6101 115.941C99.3421 115.502 98.812 115.22 98.2195 115.255C97.4134 115.303 96.7904 115.92 96.8022 116.645Z" fill="#FF0C38"/>
<path d="M100.974 119.617L106.935 119.264C107.057 119.092 107.186 118.93 107.341 118.81C107.833 118.427 108.738 118.345 109.082 117.84C109.42 117.345 109.094 116.582 109.256 116.003C109.412 115.447 110.11 114.91 110.075 114.307C110.04 113.705 109.284 113.253 109.066 112.72C108.838 112.164 109.072 111.367 108.679 110.915C108.28 110.455 107.371 110.48 106.838 110.158C106.305 109.836 105.983 109.068 105.354 108.916C104.745 108.767 104.03 109.276 103.365 109.316C102.701 109.355 101.932 108.934 101.344 109.153C100.738 109.379 100.506 110.179 100.015 110.562C99.5223 110.944 98.6169 111.027 98.2732 111.531C97.9358 112.026 98.2609 112.79 98.0989 113.369C97.9434 113.925 97.2453 114.462 97.2803 115.064C97.3153 115.667 98.0709 116.118 98.2898 116.652C98.5177 117.207 98.2833 118.004 98.6758 118.456C99.0755 118.917 99.9843 118.892 100.518 119.214C100.685 119.315 100.832 119.46 100.974 119.617Z" fill="#91DC5A"/>
<path d="M106.933 119.264C107.056 119.092 107.184 118.93 107.339 118.81C107.831 118.427 108.737 118.345 109.08 117.84C109.418 117.345 109.093 116.582 109.255 116.003C109.41 115.447 110.108 114.91 110.073 114.307C110.038 113.705 109.283 113.253 109.064 112.72C108.836 112.164 109.07 111.367 108.678 110.915C108.278 110.455 107.369 110.48 106.836 110.158C106.304 109.836 105.981 109.068 105.353 108.915C104.743 108.767 104.028 109.276 103.364 109.316C102.699 109.355 101.93 108.934 101.342 109.153C100.814 109.349 100.57 109.982 100.191 110.395C100.153 111.011 100.031 111.661 99.725 112.053C99.0087 112.97 99.097 114.646 100.231 115.378C100.252 115.392 101.345 118.133 101.913 119.561L106.933 119.264Z" fill="#B6E892"/>
<path d="M105.061 110.623C101.658 110.825 99.0213 113.51 99.2004 116.591L99.323 118.699C99.3215 118.98 99.1944 119.722 97.9055 119.798L109.781 119.096C110.87 119.031 111.707 118.179 111.65 117.193L111.572 115.859C111.393 112.778 108.463 110.422 105.061 110.623Z" fill="#FFC477"/>
<path d="M102.93 119.501C104.219 119.425 104.346 118.683 104.348 118.402L104.225 116.294C104.093 114.022 105.493 111.965 107.601 110.961C106.814 110.694 105.954 110.57 105.061 110.623C101.658 110.825 99.0213 113.51 99.2004 116.591L99.323 118.699C99.3214 118.98 99.1944 119.722 97.9055 119.798L109.781 119.096C109.781 119.096 109.781 119.096 109.781 119.096L102.93 119.501Z" fill="#FFB655"/>
<path d="M106.557 116.007C106.812 115.992 107.008 115.792 106.995 115.561C106.982 115.33 106.764 115.155 106.509 115.17C106.254 115.185 106.058 115.385 106.071 115.616C106.085 115.847 106.302 116.022 106.557 116.007Z" fill="#FFB655"/>
<path d="M109.327 115.166C109.582 115.151 109.778 114.952 109.764 114.721C109.751 114.49 109.533 114.315 109.278 114.33C109.023 114.345 108.827 114.545 108.841 114.776C108.854 115.007 109.072 115.182 109.327 115.166Z" fill="#FFB655"/>
<path d="M108.632 117.168C108.887 117.153 109.083 116.953 109.069 116.722C109.056 116.491 108.838 116.316 108.583 116.331C108.328 116.346 108.132 116.546 108.145 116.777C108.159 117.008 108.377 117.183 108.632 117.168Z" fill="#FFB655"/>
<path d="M108.083 115.706C108.211 115.698 108.309 115.598 108.302 115.483C108.295 115.367 108.187 115.28 108.059 115.287C107.932 115.295 107.834 115.395 107.84 115.51C107.847 115.626 107.956 115.713 108.083 115.706Z" fill="#FFB655"/>
<path d="M106.876 117.482C107.004 117.474 107.102 117.374 107.095 117.259C107.088 117.143 106.98 117.056 106.852 117.063C106.724 117.071 106.627 117.171 106.633 117.286C106.64 117.402 106.749 117.489 106.876 117.482Z" fill="#FFB655"/>
<path d="M107.38 114.205C107.508 114.197 107.606 114.098 107.599 113.982C107.592 113.867 107.483 113.779 107.356 113.787C107.228 113.794 107.13 113.894 107.137 114.01C107.144 114.125 107.253 114.212 107.38 114.205Z" fill="#FFB655"/>
<path d="M110.326 116.557C110.453 116.549 110.551 116.45 110.544 116.334C110.538 116.219 110.429 116.131 110.301 116.139C110.174 116.146 110.076 116.246 110.082 116.362C110.089 116.477 110.198 116.565 110.326 116.557Z" fill="#FFB655"/>
</g>
<g clip-path="url(#clip2)">
<path d="M164.443 116.029L163.927 112.947C163.418 109.904 160.252 107.883 156.891 108.455C153.531 109.028 151.198 111.986 151.707 115.029L152.023 116.915C152.134 117.575 152.815 118.01 153.545 117.886L164.443 116.029Z" fill="#FFA733"/>
<path d="M154.684 107.742C154.036 107.807 153.517 108.2 153.294 108.709C153.201 108.923 153.017 109.1 152.782 109.185C152.493 109.29 152.23 109.468 152.031 109.714C151.715 110.104 151.627 110.579 151.746 111.003C151.812 111.239 151.757 111.492 151.59 111.69C151.267 112.073 151.127 112.579 151.268 113.083C151.469 113.796 152.208 114.275 153.022 114.219C154.082 114.147 156.553 109.729 156.403 108.918C156.267 108.176 155.513 107.659 154.684 107.742Z" fill="#AA6100"/>
<path d="M154.688 107.742C154.04 107.807 153.521 108.2 153.298 108.709C153.205 108.923 153.021 109.1 152.786 109.185C152.588 109.257 152.402 109.364 152.241 109.502C152.072 110.536 152.296 111.995 154.226 113.229C155.314 111.858 156.513 109.49 156.407 108.918C156.271 108.176 155.517 107.659 154.688 107.742Z" fill="#CC7400"/>
<path d="M154.115 117.789C154.93 117.65 155.491 116.939 155.367 116.201C155.244 115.463 154.483 114.977 153.667 115.116C152.852 115.255 152.292 115.966 152.415 116.704C152.539 117.442 153.3 117.928 154.115 117.789Z" fill="#D80027"/>
<path d="M153.668 115.115C152.995 115.23 152.496 115.736 152.412 116.324C152.682 116.852 153.319 117.164 153.992 117.05C154.666 116.935 155.165 116.429 155.249 115.841C154.978 115.313 154.342 115.001 153.668 115.115Z" fill="#C70024"/>
<path d="M153.818 116.008C154.633 115.87 155.194 115.158 155.07 114.42C154.947 113.682 154.186 113.196 153.371 113.335C152.555 113.474 151.995 114.185 152.118 114.923C152.242 115.662 153.003 116.147 153.818 116.008Z" fill="#FF3F62"/>
<path d="M152.11 114.872C152.423 115.278 152.981 115.501 153.566 115.401C154.362 115.265 154.915 114.584 154.825 113.864C154.512 113.458 153.954 113.236 153.369 113.335C152.573 113.471 152.02 114.152 152.11 114.872Z" fill="#FF0C38"/>
<path d="M156.575 117.37L162.463 116.366C162.567 116.182 162.677 116.007 162.818 115.871C163.266 115.436 164.158 115.255 164.445 114.716C164.727 114.187 164.322 113.463 164.421 112.87C164.515 112.301 165.152 111.69 165.052 111.095C164.952 110.5 164.153 110.134 163.878 109.628C163.591 109.1 163.739 108.282 163.3 107.876C162.853 107.462 161.952 107.586 161.388 107.325C160.824 107.063 160.42 106.335 159.779 106.252C159.158 106.171 158.502 106.756 157.845 106.868C157.189 106.979 156.379 106.645 155.818 106.927C155.24 107.218 155.096 108.039 154.648 108.473C154.2 108.907 153.309 109.089 153.021 109.628C152.739 110.157 153.144 110.88 153.046 111.473C152.951 112.043 152.315 112.653 152.414 113.249C152.514 113.844 153.314 114.21 153.589 114.716C153.875 115.243 153.728 116.061 154.166 116.468C154.613 116.881 155.514 116.757 156.079 117.019C156.256 117.101 156.417 117.23 156.575 117.37Z" fill="#91DC5A"/>
<path d="M162.463 116.366C162.567 116.182 162.678 116.007 162.818 115.871C163.266 115.436 164.158 115.255 164.445 114.716C164.727 114.187 164.322 113.463 164.421 112.87C164.516 112.301 165.152 111.69 165.052 111.095C164.952 110.5 164.153 110.134 163.878 109.628C163.591 109.1 163.739 108.282 163.3 107.876C162.853 107.462 161.952 107.586 161.388 107.325C160.824 107.063 160.42 106.335 159.78 106.252C159.158 106.171 158.502 106.756 157.845 106.868C157.189 106.979 156.379 106.645 155.818 106.927C155.314 107.18 155.14 107.836 154.808 108.287C154.835 108.904 154.785 109.564 154.523 109.987C153.909 110.977 154.177 112.633 155.383 113.237C155.405 113.249 156.787 115.854 157.505 117.211L162.463 116.366Z" fill="#B6E892"/>
<path d="M159.67 107.982C156.309 108.555 153.977 111.513 154.486 114.556L154.835 116.638C154.863 116.918 154.817 117.669 153.544 117.886L165.273 115.887C166.349 115.704 167.089 114.765 166.926 113.791L166.706 112.474C166.196 109.431 163.03 107.409 159.67 107.982Z" fill="#FFC477"/>
<path d="M158.507 117.04C159.78 116.823 159.826 116.072 159.798 115.793L159.449 113.71C159.073 111.466 160.243 109.268 162.232 108.039C161.421 107.86 160.552 107.832 159.67 107.982C156.309 108.555 153.977 111.513 154.486 114.556L154.835 116.638C154.863 116.918 154.817 117.669 153.544 117.886L165.273 115.887C165.273 115.887 165.273 115.887 165.273 115.887L158.507 117.04Z" fill="#FFB655"/>
<path d="M161.735 113.17C161.987 113.127 162.16 112.907 162.122 112.679C162.084 112.451 161.849 112.301 161.597 112.343C161.345 112.386 161.172 112.606 161.21 112.834C161.248 113.063 161.483 113.213 161.735 113.17Z" fill="#FFB655"/>
<path d="M164.399 112.031C164.651 111.988 164.824 111.768 164.786 111.54C164.748 111.312 164.513 111.162 164.261 111.205C164.009 111.248 163.836 111.468 163.874 111.696C163.912 111.924 164.147 112.074 164.399 112.031Z" fill="#FFB655"/>
<path d="M163.927 114.097C164.179 114.054 164.352 113.834 164.314 113.606C164.275 113.378 164.04 113.228 163.788 113.27C163.536 113.313 163.363 113.533 163.401 113.761C163.439 113.99 163.675 114.14 163.927 114.097Z" fill="#FFB655"/>
<path d="M163.223 112.703C163.349 112.682 163.436 112.572 163.417 112.458C163.397 112.344 163.28 112.269 163.154 112.29C163.028 112.311 162.941 112.421 162.96 112.535C162.979 112.65 163.097 112.725 163.223 112.703Z" fill="#FFB655"/>
<path d="M162.211 114.601C162.337 114.58 162.424 114.47 162.405 114.356C162.386 114.241 162.268 114.166 162.142 114.188C162.016 114.209 161.93 114.319 161.949 114.433C161.968 114.547 162.085 114.622 162.211 114.601Z" fill="#FFB655"/>
<path d="M162.364 111.288C162.49 111.267 162.576 111.157 162.557 111.043C162.538 110.929 162.42 110.854 162.294 110.875C162.169 110.897 162.082 111.007 162.101 111.121C162.12 111.235 162.238 111.31 162.364 111.288Z" fill="#FFB655"/>
<path d="M165.543 113.304C165.669 113.282 165.756 113.173 165.737 113.058C165.718 112.944 165.6 112.869 165.474 112.891C165.348 112.912 165.262 113.022 165.281 113.136C165.3 113.25 165.417 113.325 165.543 113.304Z" fill="#FFB655"/>
</g>
</g>
<defs>
<clipPath id="clip0">
<rect width="243" height="185" fill="white"/>
</clipPath>
<clipPath id="clip1">
<rect width="15.3301" height="13.8816" fill="white" transform="matrix(0.998253 -0.059078 0.0580423 0.998314 95.7422 107.731)"/>
</clipPath>
<clipPath id="clip2">
<rect width="15.3334" height="13.8786" fill="white" transform="matrix(0.98579 -0.167981 0.165107 0.986276 150.098 106.127)"/>
</clipPath>
</defs>
</svg>
