<svg width="820" height="636" viewBox="0 0 820 636" fill="none" xmlns="http://www.w3.org/2000/svg">
<g clip-path="url(#clip0)">
<path d="M364.689 144.618C330.896 144.644 297.337 139.007 265.405 127.94C222.597 113.128 187.527 92.698 161.171 67.2169C111.315 19.0165 70.4412 11.7525 44.9363 14.1444C17.3277 16.7348 1.25732 30.8827 1.0983 31.0253L0 29.8001C0.162229 29.6542 16.5639 15.1852 44.6761 12.5156C61.1617 10.9512 78.4015 13.677 95.9179 20.62C117.762 29.278 140.1 44.5572 162.314 66.033C188.496 91.3466 223.362 111.652 265.943 126.384C344.111 153.429 432.209 146.881 507.649 108.418C532.626 95.6827 557.313 86.9896 581.023 82.5808C610.92 77.0199 639.274 78.3107 665.303 86.4146C722.501 104.222 761.569 103.278 784.272 99.3517C808.767 95.1148 819.88 86.6356 819.99 86.5504L821 87.8496C820.54 88.2076 809.448 96.6672 784.551 100.974C761.67 104.932 722.322 105.891 664.815 87.9858C606.587 69.8595 547.614 89.8886 508.396 109.884C471.108 128.996 430.393 140.491 388.622 143.698C380.616 144.311 372.638 144.618 364.689 144.618Z" fill="#3F3D56"/>
<path d="M361.368 165.043C370.573 165.043 378.036 157.575 378.036 148.362C378.036 139.15 370.573 131.682 361.368 131.682C352.162 131.682 344.699 139.15 344.699 148.362C344.699 157.575 352.162 165.043 361.368 165.043Z" fill="#ED8936"/>
<path d="M619.606 98.3789C628.812 98.3789 636.274 90.9108 636.274 81.6984C636.274 72.486 628.812 65.0178 619.606 65.0178C610.4 65.0178 602.938 72.486 602.938 81.6984C602.938 90.9108 610.4 98.3789 619.606 98.3789Z" fill="#ED8936"/>
<path d="M82.5708 33.3611C91.7765 33.3611 99.2392 25.8929 99.2392 16.6805C99.2392 7.46813 91.7765 0 82.5708 0C73.3651 0 65.9023 7.46813 65.9023 16.6805C65.9023 25.8929 73.3651 33.3611 82.5708 33.3611Z" fill="#ED8936"/>
<path d="M480.902 398.734V559.901H506.225V412.925H607.515V559.901H632.837V237.566H607.515C599.123 237.566 586.244 281.3 586.244 325.245C586.244 358.37 590.109 386.757 595.606 398.734H480.902ZM607.515 398.734H607.268C607.351 398.554 607.433 398.363 607.515 398.176V398.734Z" fill="#3F3D56"/>
<path d="M574.741 157.794H574.741C553.955 157.794 537.105 176.508 537.105 199.592V228.921H546.119L551.337 218.054L550.033 228.921H607.969L612.713 219.042L611.527 228.921H618.05V205.892C618.05 179.329 598.66 157.794 574.741 157.794Z" fill="#2F2E41"/>
<path d="M531.616 349.412L508.508 359.24L428.208 424.568C425.255 428.199 423.445 432.625 423.008 437.286C422.431 444.802 398.167 484.114 406.833 489.317C415.498 494.52 446.694 510.129 448.427 499.723C450.16 489.317 459.403 444.802 459.403 444.802L536.815 375.428L531.616 349.412Z" fill="#2F2E41"/>
<path d="M440.919 491.051L431.098 519.957C431.098 519.957 441.497 530.941 436.297 540.191V571.988H428.209L425.899 555.222C425.899 555.222 416.687 571.776 412.034 571.988C402.28 572.432 382.965 575.904 382.387 570.701C381.809 565.498 397.014 560.425 397.014 560.425L413.189 515.91L420.122 488.739L440.919 491.051Z" fill="#2F2E41"/>
<path d="M591.696 341.897C591.696 341.897 596.895 392.771 581.875 402.021C566.855 411.271 500.42 440.755 500.42 440.755C500.42 440.755 528.727 467.348 522.95 473.708C517.173 480.067 491.177 497.411 487.71 493.942C484.244 490.473 445.538 448.849 450.16 435.552C454.782 422.255 518.906 378.896 518.906 378.896L526.416 351.725L528.727 329.756L552.99 314.147L591.696 341.897Z" fill="#2F2E41"/>
<path d="M565.232 223.448C578.533 223.448 589.315 212.658 589.315 199.348C589.315 186.037 578.533 175.247 565.232 175.247C551.931 175.247 541.148 186.037 541.148 199.348C541.148 212.658 551.931 223.448 565.232 223.448Z" fill="#FFB9B9"/>
<path d="M583.898 209.219C583.898 209.219 582.742 231.187 600.651 238.125C618.56 245.062 556.168 290.155 556.168 290.155V239.859C556.168 239.859 564.256 231.187 556.168 217.89L583.898 209.219Z" fill="#FFB9B9"/>
<path d="M622.316 312.413L617.694 334.959L603.83 412.427C603.83 412.427 615.383 445.38 599.786 444.802C584.188 444.224 591.698 408.959 591.698 408.959L599.786 344.787V319.928L622.316 312.413Z" fill="#FFB9B9"/>
<path d="M522.951 301.428L517.751 321.663L494.066 378.896C494.066 378.896 477.89 406.068 491.177 405.49C504.464 404.912 504.464 378.896 504.464 378.896L531.616 332.647V306.632L522.951 301.428Z" fill="#FFB9B9"/>
<path d="M518.908 470.239L537.972 488.161C537.972 488.161 551.259 485.27 556.459 500.879C561.658 516.488 565.124 526.316 565.124 526.316L558.192 530.363L549.526 518.223C549.526 518.223 544.327 540.191 539.128 541.926C533.928 543.66 507.932 555.222 510.243 541.926L522.952 523.426C522.952 523.426 524.685 502.614 519.486 500.879C514.287 499.145 500.422 481.801 500.422 481.801L518.908 470.239Z" fill="#2F2E41"/>
<path d="M592.614 359.818C592.614 359.818 538.31 340.162 534.844 341.897C532.264 343.037 529.516 343.751 526.707 344.01L526.756 336.116C526.756 336.116 544.665 329.756 554.486 333.803C564.307 337.85 594.347 355.772 594.347 355.772L592.614 359.818Z" fill="#3F3D56"/>
<path d="M559.634 278.593C559.634 278.593 575.232 260.671 579.853 249.687C582.777 243.028 588.144 237.747 594.847 234.933C594.847 234.933 629.535 242.75 628.958 256.624C628.38 270.499 607.005 291.89 607.005 291.89C607.005 291.89 609.894 368.779 594.296 367.623C590.931 363.605 588.557 358.853 587.363 353.748C585.63 345.655 531.904 336.983 531.904 336.983C531.904 336.983 527.283 345.076 526.705 341.608C526.127 338.139 531.327 253.156 531.327 253.156L558.875 234.933L559.634 278.593Z" fill="#D0CDE1"/>
<path d="M624.508 251.039L624.895 251.257C626.13 251.95 627.157 252.96 627.873 254.183C628.588 255.405 628.965 256.797 628.965 258.213L628.959 301.117C628.963 302.283 629.221 303.435 629.714 304.491C630.208 305.548 630.925 306.484 631.816 307.236C634.042 309.13 636.105 311.859 631.847 313.28C624.914 315.592 597.763 327.155 597.185 323.108C596.607 319.061 595.452 314.436 597.185 314.436C598.542 314.436 606.626 272.98 613.121 255.255C613.518 254.17 614.146 253.184 614.961 252.366C615.776 251.547 616.759 250.916 617.841 250.515C618.924 250.114 620.081 249.953 621.232 250.044C622.384 250.134 623.501 250.474 624.508 251.039Z" fill="#D0CDE1"/>
<path d="M539.127 251.132L531.039 253.445L521.796 293.335C521.796 293.335 510.82 295.647 514.286 299.694C517.752 303.741 532.195 314.147 532.195 314.147L539.127 251.132Z" fill="#D0CDE1"/>
<path d="M585.44 169.308C583.629 166.874 581.282 164.891 578.581 163.512C575.881 162.132 572.898 161.394 569.866 161.355H569.128C554.881 161.355 543.332 174.256 543.332 190.17V190.17H548.106L548.877 184.297L550.007 190.17H578.319L580.691 185.202L580.098 190.17H585.668C588.267 203.087 584.533 216.004 574.465 228.921H583.953L588.697 218.984L587.511 228.921H605.597L609.155 206.067C609.155 188.953 599.218 174.439 585.44 169.308Z" fill="#2F2E41"/>
<path d="M101.599 435.972C107.676 422.73 111.95 391.342 111.95 354.718C111.95 306.129 97.7095 257.774 88.4317 257.774H60.4336V614.169H88.4317V451.662H200.424V614.169H228.423V435.972H101.599ZM88.4317 435.355C88.5223 435.562 88.6126 435.772 88.704 435.972H88.4317V435.355Z" fill="#3F3D56"/>
<path d="M218.297 370.954C218.297 370.954 252.016 384.945 241.325 393.175C230.633 401.405 208.428 383.299 209.251 380.83C210.073 378.361 205.961 372.6 205.961 372.6L218.297 370.954Z" fill="#9F616A"/>
<path d="M188.69 260.671L199.382 270.547L201.849 299.352L210.073 329.803C210.073 329.803 224.054 358.609 221.587 364.37C219.119 370.131 224.054 371.777 224.054 371.777L205.138 379.184C205.138 379.184 184.578 356.14 184.578 351.202C184.578 346.264 188.69 260.671 188.69 260.671Z" fill="#575A88"/>
<path opacity="0.1" d="M188.69 260.671L199.382 270.547L201.849 299.352L210.073 329.803C210.073 329.803 224.054 358.609 221.587 364.37C219.119 370.131 224.054 371.777 224.054 371.777L205.138 379.184C205.138 379.184 184.578 356.14 184.578 351.202C184.578 346.264 188.69 260.671 188.69 260.671Z" fill="black"/>
<path d="M289.847 556.954C289.847 556.954 285.735 575.883 284.913 577.529C284.09 579.175 300.538 584.936 300.538 584.936L320.276 570.945C320.276 570.945 312.052 552.839 312.052 549.547L289.847 556.954Z" fill="#575A88"/>
<path d="M182.109 372.6L187.866 379.184C187.866 379.184 307.116 393.998 309.583 417.042C312.05 440.087 329.321 548.724 319.452 552.016C309.583 555.308 284.088 567.653 284.088 561.069C284.088 554.485 267.64 463.954 270.93 447.494C270.93 447.494 128.652 429.388 125.363 408.812C122.073 388.237 128.652 379.184 128.652 379.184L182.109 372.6Z" fill="#2F2E41"/>
<path opacity="0.1" d="M182.109 372.6L187.866 379.184C187.866 379.184 307.116 393.998 309.583 417.042C312.05 440.087 329.321 548.724 319.452 552.016C309.583 555.308 284.088 567.653 284.088 561.069C284.088 554.485 267.64 463.954 270.93 447.494C270.93 447.494 128.652 429.388 125.363 408.812C122.073 388.237 128.652 379.184 128.652 379.184L182.109 372.6Z" fill="black"/>
<path d="M288.202 575.883C288.202 575.883 284.912 568.476 283.268 570.945C281.623 573.414 275.866 602.22 281.623 602.22C287.38 602.22 340.014 615.388 347.416 613.742C354.817 612.096 368.799 614.565 367.154 606.335C365.509 598.105 357.285 597.282 357.285 597.282C357.285 597.282 326.855 579.175 325.211 570.122C323.566 561.069 314.519 566.007 314.519 566.007V571.768C314.519 571.768 297.249 584.936 288.202 575.883Z" fill="#2F2E41"/>
<path d="M131.941 198.122C131.941 198.122 137.698 226.104 125.361 228.573C113.025 231.042 140.987 247.502 140.987 247.502L159.08 257.378L172.239 244.21C172.239 244.21 160.314 219.932 169.361 201.825C178.407 183.719 131.941 198.122 131.941 198.122Z" fill="#9F616A"/>
<path d="M172.239 244.21L159.08 257.378L140.987 247.502C140.987 247.502 113.025 231.042 125.361 228.573C133.298 226.985 133.742 214.837 133.059 206.377C132.836 203.607 132.463 200.851 131.941 198.122C131.941 198.122 178.407 183.719 169.361 201.825C167.986 204.621 167.033 207.606 166.531 210.681C163.76 226.952 172.239 244.21 172.239 244.21Z" fill="#9F616A"/>
<path d="M218.297 580.821V599.75H249.548L252.016 592.343L248.726 572.591L218.297 580.821Z" fill="#575A88"/>
<path d="M89.1758 389.06C89.1758 389.06 89.1758 437.618 108.914 439.264C128.652 440.91 199.379 449.963 199.379 449.963C199.379 449.963 203.491 530.618 210.893 556.954C218.295 583.29 211.715 584.936 218.295 586.582C224.874 588.228 252.836 582.467 252.013 576.706C251.191 570.945 247.901 425.273 247.901 425.273C247.901 425.273 255.303 393.998 156.614 379.184L89.1758 389.06Z" fill="#2F2E41"/>
<path d="M220.764 593.989C220.764 593.989 215.829 583.29 215.007 586.582C214.184 589.874 204.316 618.68 214.184 621.149C224.053 623.618 255.305 636.786 275.865 635.963C296.426 635.14 298.893 634.317 298.893 634.317C298.893 634.317 304.65 626.087 297.248 621.149C289.846 616.211 259.417 587.405 257.772 584.113C256.128 580.821 243.791 578.352 243.791 584.113C243.791 589.874 226.521 601.397 220.764 593.989Z" fill="#2F2E41"/>
<path opacity="0.1" d="M169.361 201.825C167.987 204.621 167.033 207.606 166.532 210.681C162.437 213.158 159.698 212.524 154.558 212.524C146.934 212.524 143.858 202.772 138.932 197.71C138.545 193.011 131.941 198.122 131.941 198.122C131.941 198.122 178.408 183.719 169.361 201.825Z" fill="black"/>
<path d="M152.503 212.113C167.492 212.113 179.643 199.953 179.643 184.954C179.643 169.954 167.492 157.794 152.503 157.794C137.514 157.794 125.363 169.954 125.363 184.954C125.363 199.953 137.514 212.113 152.503 212.113Z" fill="#9F616A"/>
<path d="M199.377 270.547C199.377 270.547 195.265 300.175 192.798 310.874C190.33 321.573 187.041 370.954 185.396 377.538C183.751 384.122 173.882 385.768 154.144 383.299C152.905 383.143 151.659 383.049 150.41 383.019C138.255 382.632 124.348 387.184 111.477 390.755C104.076 392.813 97.0112 394.541 90.8185 394.821C81.443 395.249 78.6961 384.846 79.0169 373.587C79.3211 363.111 82.29 351.876 85.0616 347.91C90.0537 340.766 85.1438 276.629 86.9861 255.477V255.469C87.2656 252.243 87.7015 250.021 88.3512 249.148C93.2857 242.564 125.36 226.104 128.954 226.771C132.539 227.437 163.191 246.679 163.191 246.679C170.592 246.679 170.354 238.647 170.354 238.647C170.354 238.647 175.527 248.325 185.396 250.794C195.265 253.263 199.377 270.547 199.377 270.547Z" fill="#575A88"/>
<path d="M144.405 377.244C144.405 377.244 197.381 378.932 188.101 385.231C178.82 391.529 137.7 397.29 136.877 389.06C136.055 380.83 144.405 377.244 144.405 377.244Z" fill="#9F616A"/>
<path opacity="0.1" d="M150.413 383.019C150.586 386.18 142.09 393.299 139.344 398.113C137.822 400.78 126.045 397.265 111.48 390.755C100.303 385.735 89.4607 380.001 79.0195 373.587C79.3238 363.111 82.2927 351.876 85.0643 347.91C90.0564 340.766 85.1465 276.629 86.9888 255.477V255.469C87.428 255.246 87.8845 255.059 88.3539 254.909H98.2229C131.942 270.547 93.2884 338.033 93.2884 338.033C93.2884 338.033 144.278 380.007 149.212 381.653C149.536 381.714 149.83 381.882 150.047 382.13C150.265 382.377 150.394 382.69 150.413 383.019Z" fill="black"/>
<path d="M98.225 249.971H88.3561C88.3561 249.971 79.3096 252.44 71.9078 268.901C64.5061 285.361 37.3665 336.387 61.2165 356.14C85.0664 375.892 136.056 398.936 139.346 393.175C142.635 387.414 154.149 378.361 149.215 376.715C144.28 375.069 93.2906 333.095 93.2906 333.095C93.2906 333.095 131.944 265.609 98.225 249.971Z" fill="#575A88"/>
<path d="M148.328 172.316C148.328 172.316 149.519 155.816 164.212 162.544C178.905 169.271 177.946 150.728 173.506 147.451C169.066 144.175 169.206 143.364 152.967 145.556C136.728 147.749 105.2 151.463 115.394 184.139C125.588 216.815 134.821 208.409 134.821 208.409C134.821 208.409 126.718 179.005 134.928 184.607L143.139 190.209L147.472 189.291L148.328 172.316Z" fill="#2F2E41"/>
<path d="M754.592 409.897C754.592 395.042 644.282 382.999 508.208 382.999C372.134 382.999 261.824 395.042 261.824 409.897C261.824 415.654 278.403 420.989 306.621 425.364V609.388H320.06V427.261C365.256 433.092 432.765 436.795 508.208 436.795C584.274 436.795 652.28 433.031 697.476 427.117V609.388H710.915V425.187C738.447 420.846 754.592 415.577 754.592 409.897Z" fill="#3F3D56"/>
<path d="M539.077 410.458C566.784 410.458 589.244 404.931 589.244 398.113C589.244 391.295 566.784 385.768 539.077 385.768C511.371 385.768 488.91 391.295 488.91 398.113C488.91 404.931 511.371 410.458 539.077 410.458Z" fill="#F2F2F2"/>
<path d="M539.078 408.232C561.788 408.232 580.198 403.702 580.198 398.113C580.198 392.525 561.788 387.994 539.078 387.994C516.367 387.994 497.957 392.525 497.957 398.113C497.957 403.702 516.367 408.232 539.078 408.232Z" fill="#D0CDE1"/>
<path d="M352.386 420.334C380.093 420.334 402.553 414.807 402.553 407.989C402.553 401.171 380.093 395.644 352.386 395.644C324.679 395.644 302.219 401.171 302.219 407.989C302.219 414.807 324.679 420.334 352.386 420.334Z" fill="#F2F2F2"/>
<path d="M352.386 418.108C375.097 418.108 393.507 413.578 393.507 407.989C393.507 402.401 375.097 397.87 352.386 397.87C329.676 397.87 311.266 402.401 311.266 407.989C311.266 413.578 329.676 418.108 352.386 418.108Z" fill="#D0CDE1"/>
<path d="M531.458 371.891C530.361 372.348 529.185 372.584 527.997 372.584C526.808 372.584 525.632 372.348 524.535 371.891C525.632 371.434 526.808 371.198 527.997 371.198C529.185 371.198 530.361 371.434 531.458 371.891Z" fill="#D0CDE1"/>
<path d="M538.38 374.725C537.283 375.183 536.107 375.418 534.919 375.418C533.73 375.418 532.554 375.183 531.457 374.725C532.554 374.268 533.73 374.032 534.919 374.032C536.107 374.032 537.283 374.268 538.38 374.725Z" fill="#D0CDE1"/>
<path d="M539.009 369.687C537.912 370.144 536.736 370.379 535.547 370.379C534.359 370.379 533.183 370.144 532.086 369.687C533.183 369.229 534.359 368.994 535.547 368.994C536.736 368.994 537.912 369.229 539.009 369.687Z" fill="#D0CDE1"/>
<path d="M551.911 369.687C550.814 370.144 549.638 370.379 548.45 370.379C547.262 370.379 546.085 370.144 544.988 369.687C546.085 369.229 547.262 368.994 548.45 368.994C549.638 368.994 550.814 369.229 551.911 369.687Z" fill="#D0CDE1"/>
<path d="M548.45 372.521C547.354 372.978 546.177 373.214 544.989 373.214C543.801 373.214 542.624 372.978 541.527 372.521C542.624 372.063 543.801 371.828 544.989 371.828C546.177 371.828 547.354 372.063 548.45 372.521Z" fill="#D0CDE1"/>
<path d="M345.591 381.767C344.494 382.224 343.318 382.46 342.13 382.46C340.941 382.46 339.765 382.224 338.668 381.767C339.765 381.31 340.941 381.074 342.13 381.074C343.318 381.074 344.494 381.31 345.591 381.767Z" fill="#D0CDE1"/>
<path d="M352.517 384.601C351.42 385.059 350.244 385.294 349.055 385.294C347.867 385.294 346.691 385.059 345.594 384.601C346.691 384.144 347.867 383.909 349.055 383.909C350.244 383.909 351.42 384.144 352.517 384.601Z" fill="#D0CDE1"/>
<path d="M353.142 379.563C352.045 380.02 350.868 380.256 349.68 380.256C348.492 380.256 347.316 380.02 346.219 379.563C347.316 379.105 348.492 378.87 349.68 378.87C350.868 378.87 352.045 379.105 353.142 379.563Z" fill="#D0CDE1"/>
<path d="M366.048 379.563C364.951 380.02 363.775 380.256 362.587 380.256C361.398 380.256 360.222 380.02 359.125 379.563C360.222 379.105 361.398 378.87 362.587 378.87C363.775 378.87 364.951 379.105 366.048 379.563Z" fill="#D0CDE1"/>
<path d="M362.587 382.397C361.49 382.854 360.314 383.09 359.126 383.09C357.937 383.09 356.761 382.854 355.664 382.397C356.761 381.94 357.937 381.704 359.126 381.704C360.314 381.704 361.49 381.94 362.587 382.397Z" fill="#D0CDE1"/>
<path opacity="0.1" d="M558.354 400.408L562.885 401.54L564.265 404.715C564.194 404.784 564.129 404.859 564.07 404.939L557.992 403.608L557.977 400.611C557.977 400.611 558.06 400.564 558.223 400.476C558.261 400.457 558.307 400.432 558.354 400.408Z" fill="white"/>
<path opacity="0.1" d="M374.955 411.107L379.487 412.239L380.867 415.414C380.796 415.483 380.73 415.558 380.672 415.638L374.593 414.307L374.578 411.31C374.578 411.31 374.662 411.264 374.825 411.175C374.862 411.156 374.909 411.131 374.955 411.107Z" fill="white"/>
<path d="M673.625 318.409C672.331 317.115 670.813 316.065 669.145 315.311V283.332C669.145 282.957 668.996 282.598 668.731 282.333C668.466 282.068 668.107 281.919 667.732 281.919H659.821C659.447 281.919 659.087 282.068 658.822 282.333C658.558 282.598 658.409 282.957 658.409 283.332V314.698C655.549 315.647 653.061 317.474 651.297 319.918C649.533 322.362 648.583 325.301 648.582 328.316V396.915C648.582 397.741 648.745 398.558 649.06 399.321C649.376 400.083 649.839 400.776 650.422 401.36C651.005 401.944 651.698 402.407 652.46 402.723C653.222 403.039 654.039 403.201 654.864 403.201H671.809C673.468 403.201 675.058 402.542 676.231 401.369C677.403 400.195 678.062 398.604 678.062 396.944V329.124C678.064 327.134 677.674 325.162 676.912 323.324C676.151 321.485 675.034 319.815 673.625 318.409Z" fill="#3F3D56"/>
<path d="M678.066 338.372H648.586V377.342H678.066V338.372Z" fill="#7A7DB2"/>
<path d="M669.784 284.104H669.147V283.332C669.147 282.957 668.998 282.598 668.733 282.333C668.468 282.068 668.109 281.919 667.734 281.919H659.823C659.448 281.919 659.089 282.068 658.824 282.333C658.559 282.598 658.41 282.957 658.41 283.332V284.104H657.773V287.382H658.41V304.136H669.147V287.382H669.784V284.104Z" fill="#ED8936"/>
<path d="M437.585 346.166C436.805 344.5 436.189 343.321 435.973 342.916C422.741 346.183 413.912 343.422 412.52 342.934C411.839 344.22 407.588 352.445 405.87 360.331C404.318 367.443 405.219 372.212 408.548 374.503L408.646 374.573L408.668 374.588C412.342 377.011 415.847 379.156 419.084 380.965C419.521 381.208 419.932 381.434 420.318 381.642L420.36 381.665L420.389 381.702C420.833 382.262 421.247 382.846 421.628 383.451C422.343 384.452 422.777 385.627 422.885 386.853V422.18L422.662 422.185C414.221 422.357 408.997 423.789 408.997 425.017C408.997 426.364 415.262 427.865 424.251 427.865C433.241 427.865 439.505 426.364 439.505 425.017C439.505 423.807 434.369 422.383 426.072 422.191L425.848 422.186L426.057 389.508C426.062 387.296 426.576 385.114 427.559 383.132C427.726 382.799 427.906 382.475 428.094 382.17C428.244 381.924 428.404 381.685 428.568 381.458L428.598 381.417L428.643 381.392C429.059 381.165 429.5 380.919 429.967 380.654L430.022 380.624C433.086 378.892 436.387 376.862 439.835 374.587C442.914 372.556 443.986 368.451 443.021 362.387C442.102 356.604 439.558 350.374 437.585 346.166Z" fill="#D0CDE1"/>
<path d="M438.377 373.847C434.762 376.231 431.777 378.02 429.495 379.308H429.493C426.163 379.081 422.819 379.175 419.508 379.589C417.168 378.282 414.011 376.407 410.128 373.847C410.091 373.822 410.054 373.798 410.018 373.771V373.769C406.456 371.317 406.368 366.124 407.526 360.814C410.474 360.486 415.174 360.63 421.489 362.887C428.967 365.56 436.795 364.049 441.331 362.674C442.076 367.359 441.621 371.706 438.377 373.847Z" fill="#ED8936"/>
<path d="M416.883 358.892C417.448 358.892 417.906 358.434 417.906 357.868C417.906 357.303 417.448 356.844 416.883 356.844C416.318 356.844 415.859 357.303 415.859 357.868C415.859 358.434 416.318 358.892 416.883 358.892Z" fill="#ED8936"/>
<path d="M414.016 368.316C414.581 368.316 415.039 367.857 415.039 367.291C415.039 366.726 414.581 366.267 414.016 366.267C413.45 366.267 412.992 366.726 412.992 367.291C412.992 367.857 413.45 368.316 414.016 368.316Z" fill="white"/>
<path d="M419.341 360.941C419.68 360.941 419.955 360.666 419.955 360.327C419.955 359.987 419.68 359.712 419.341 359.712C419.002 359.712 418.727 359.987 418.727 360.327C418.727 360.666 419.002 360.941 419.341 360.941Z" fill="#ED8936"/>
<path d="M421.794 372.618C422.133 372.618 422.408 372.342 422.408 372.003C422.408 371.664 422.133 371.388 421.794 371.388C421.455 371.388 421.18 371.664 421.18 372.003C421.18 372.342 421.455 372.618 421.794 372.618Z" fill="white"/>
<path d="M417.497 373.232C417.836 373.232 418.111 372.957 418.111 372.618C418.111 372.278 417.836 372.003 417.497 372.003C417.158 372.003 416.883 372.278 416.883 372.618C416.883 372.957 417.158 373.232 417.497 373.232Z" fill="white"/>
<path d="M429.981 352.747C430.321 352.747 430.595 352.472 430.595 352.132C430.595 351.793 430.321 351.518 429.981 351.518C429.642 351.518 429.367 351.793 429.367 352.132C429.367 352.472 429.642 352.747 429.981 352.747Z" fill="#ED8936"/>
<path d="M485.596 312.862C484.816 311.196 484.201 310.017 483.985 309.612C470.752 312.88 461.924 310.118 460.531 309.63C459.85 310.917 455.6 319.141 453.882 327.027C452.33 334.14 453.231 338.908 456.559 341.199L456.658 341.27L456.679 341.284C460.354 343.707 463.859 345.853 467.096 347.661C467.532 347.904 467.944 348.13 468.33 348.339L468.371 348.361L468.4 348.398C468.845 348.958 469.259 349.542 469.64 350.148C470.355 351.149 470.789 352.323 470.897 353.549V388.876L470.674 388.881C462.233 389.053 457.008 390.485 457.008 391.713C457.008 393.06 463.273 394.561 472.263 394.561C481.252 394.561 487.517 393.06 487.517 391.713C487.517 390.503 482.381 389.079 474.084 388.888L473.86 388.882L474.068 356.204C474.073 353.992 474.587 351.81 475.57 349.829C475.738 349.496 475.918 349.172 476.105 348.866C476.256 348.621 476.416 348.381 476.58 348.155L476.61 348.113L476.655 348.089C477.07 347.861 477.512 347.615 477.979 347.35L478.034 347.32C481.098 345.588 484.399 343.558 487.847 341.284C490.926 339.253 491.997 335.148 491.033 329.083C490.114 323.301 487.569 317.071 485.596 312.862Z" fill="#D0CDE1"/>
<path d="M486.385 340.543C482.77 342.927 479.785 344.716 477.503 346.004H477.501C474.171 345.777 470.827 345.871 467.515 346.285C465.176 344.978 462.019 343.104 458.136 340.543C458.099 340.518 458.062 340.494 458.025 340.467V340.465C454.463 338.013 454.375 332.82 455.534 327.51C458.482 327.183 463.182 327.326 469.497 329.583C476.975 332.257 484.803 330.745 489.339 329.37C490.084 334.055 489.629 338.402 486.385 340.543Z" fill="#ED8936"/>
<path d="M464.895 325.589C465.46 325.589 465.918 325.13 465.918 324.565C465.918 323.999 465.46 323.54 464.895 323.54C464.329 323.54 463.871 323.999 463.871 324.565C463.871 325.13 464.329 325.589 464.895 325.589Z" fill="#ED8936"/>
<path d="M462.027 335.012C462.593 335.012 463.051 334.553 463.051 333.988C463.051 333.422 462.593 332.964 462.027 332.964C461.462 332.964 461.004 333.422 461.004 333.988C461.004 334.553 461.462 335.012 462.027 335.012Z" fill="white"/>
<path d="M467.348 327.637C467.688 327.637 467.963 327.362 467.963 327.023C467.963 326.683 467.688 326.408 467.348 326.408C467.009 326.408 466.734 326.683 466.734 327.023C466.734 327.362 467.009 327.637 467.348 327.637Z" fill="#ED8936"/>
<path d="M469.806 339.314C470.145 339.314 470.42 339.039 470.42 338.699C470.42 338.36 470.145 338.085 469.806 338.085C469.466 338.085 469.191 338.36 469.191 338.699C469.191 339.039 469.466 339.314 469.806 339.314Z" fill="white"/>
<path d="M465.509 339.928C465.848 339.928 466.123 339.653 466.123 339.314C466.123 338.974 465.848 338.699 465.509 338.699C465.169 338.699 464.895 338.974 464.895 339.314C464.895 339.653 465.169 339.928 465.509 339.928Z" fill="white"/>
<path d="M477.993 319.443C478.332 319.443 478.607 319.168 478.607 318.829C478.607 318.489 478.332 318.214 477.993 318.214C477.654 318.214 477.379 318.489 477.379 318.829C477.379 319.168 477.654 319.443 477.993 319.443Z" fill="#ED8936"/>
<g clip-path="url(#clip1)">
<path d="M368.047 409.602L367.435 398.877C366.829 388.285 356.929 380.185 345.435 380.878C333.94 381.57 325.03 390.802 325.636 401.394L326.01 407.955C326.142 410.255 328.272 411.998 330.768 411.847L368.047 409.602Z" fill="#FFA733"/>
<path d="M338.289 377.606C336.089 377.585 334.203 378.734 333.27 380.39C332.878 381.085 332.196 381.621 331.376 381.824C330.369 382.073 329.421 382.583 328.662 383.348C327.458 384.561 326.989 386.151 327.235 387.647C327.371 388.477 327.096 389.322 326.463 389.935C325.239 391.121 324.583 392.799 324.876 394.575C325.291 397.086 327.6 399.002 330.355 399.118C333.94 399.268 343.845 385.101 343.637 382.272C343.447 379.685 341.103 377.634 338.289 377.606Z" fill="#AA6100"/>
<path d="M338.29 377.609C336.089 377.587 334.204 378.736 333.271 380.392C332.879 381.088 332.196 381.623 331.377 381.826C330.686 381.997 330.024 382.291 329.431 382.705C328.489 386.173 328.711 391.244 334.744 396.186C338.895 391.913 343.784 384.271 343.638 382.275C343.448 379.687 341.104 377.637 338.29 377.609Z" fill="#CC7400"/>
<path d="M332.721 411.73C335.51 411.562 337.651 409.343 337.504 406.774C337.358 404.204 334.978 402.257 332.19 402.425C329.401 402.593 327.26 404.812 327.406 407.382C327.553 409.951 329.933 411.898 332.721 411.73Z" fill="#D80027"/>
<path d="M332.192 402.425C329.888 402.564 328.027 404.103 327.532 406.083C328.249 407.991 330.272 409.296 332.576 409.158C334.881 409.019 336.741 407.479 337.236 405.499C336.519 403.592 334.496 402.286 332.192 402.425Z" fill="#C70024"/>
<path d="M332.366 405.533C335.154 405.365 337.296 403.146 337.149 400.576C337.002 398.007 334.623 396.06 331.834 396.228C329.046 396.396 326.904 398.615 327.051 401.184C327.198 403.754 329.577 405.701 332.366 405.533Z" fill="#FF3F62"/>
<path d="M327.045 401.006C327.95 402.513 329.741 403.483 331.743 403.362C334.466 403.198 336.571 401.077 336.531 398.585C335.626 397.078 333.835 396.108 331.833 396.229C329.11 396.393 327.005 398.513 327.045 401.006Z" fill="#FF0C38"/>
<path d="M341.136 411.223L361.275 410.01C361.691 409.419 362.126 408.863 362.648 408.45C364.311 407.134 367.37 406.85 368.531 405.116C369.671 403.414 368.573 400.788 369.12 398.799C369.646 396.889 372.004 395.041 371.886 392.97C371.767 390.899 369.215 389.347 368.475 387.513C367.705 385.603 368.497 382.863 367.171 381.309C365.82 379.727 362.75 379.812 360.949 378.705C359.15 377.599 358.059 374.959 355.937 374.434C353.879 373.924 351.462 375.674 349.217 375.81C346.972 375.945 344.372 374.497 342.386 375.25C340.338 376.026 339.556 378.779 337.896 380.093C336.233 381.409 333.173 381.693 332.012 383.426C330.872 385.129 331.971 387.754 331.424 389.744C330.898 391.654 328.539 393.502 328.658 395.573C328.776 397.644 331.329 399.196 332.068 401.03C332.838 402.94 332.046 405.68 333.373 407.234C334.723 408.816 337.794 408.731 339.595 409.838C340.161 410.186 340.656 410.685 341.136 411.223Z" fill="#91DC5A"/>
<path d="M361.276 410.01C361.691 409.419 362.126 408.863 362.649 408.45C364.312 407.134 367.371 406.85 368.532 405.117C369.672 403.414 368.573 400.788 369.121 398.799C369.646 396.889 372.005 395.041 371.886 392.97C371.768 390.899 369.215 389.347 368.476 387.513C367.706 385.603 368.498 382.863 367.172 381.309C365.821 379.727 362.75 379.812 360.949 378.705C359.15 377.599 358.06 374.959 355.938 374.434C353.879 373.924 351.463 375.674 349.217 375.81C346.972 375.945 344.373 374.497 342.387 375.25C340.604 375.926 339.78 378.1 338.5 379.519C338.368 381.637 337.958 383.871 336.924 385.219C334.504 388.373 334.802 394.134 338.633 396.652C338.703 396.7 342.397 406.123 344.317 411.031L361.276 410.01Z" fill="#B6E892"/>
<path d="M354.942 380.305C343.447 380.997 334.538 390.23 335.143 400.821L335.557 408.069C335.552 409.035 335.123 411.585 330.768 411.847L370.89 409.431C374.571 409.21 377.397 406.28 377.204 402.889L376.942 398.304C376.337 387.712 366.437 379.613 354.942 380.305Z" fill="#FFC477"/>
<path d="M347.744 410.825C352.099 410.563 352.528 408.012 352.533 407.047L352.119 399.799C351.673 391.988 356.402 384.917 363.526 381.464C360.867 380.548 357.96 380.123 354.942 380.305C343.447 380.997 334.538 390.229 335.143 400.821L335.557 408.069C335.552 409.034 335.123 411.585 330.768 411.847L370.89 409.431C370.89 409.431 370.89 409.431 370.89 409.431L347.744 410.825Z" fill="#FFB655"/>
<path d="M359.998 398.813C360.86 398.761 361.522 398.075 361.477 397.281C361.431 396.487 360.696 395.885 359.834 395.937C358.972 395.989 358.31 396.675 358.356 397.469C358.401 398.263 359.136 398.865 359.998 398.813Z" fill="#FFB655"/>
<path d="M369.354 395.923C370.216 395.872 370.877 395.186 370.832 394.392C370.787 393.597 370.051 392.996 369.189 393.048C368.328 393.1 367.666 393.785 367.711 394.58C367.756 395.374 368.492 395.975 369.354 395.923Z" fill="#FFB655"/>
<path d="M367.01 402.804C367.872 402.752 368.534 402.066 368.488 401.272C368.443 400.478 367.708 399.876 366.846 399.928C365.984 399.98 365.322 400.666 365.367 401.46C365.413 402.254 366.148 402.856 367.01 402.804Z" fill="#FFB655"/>
<path d="M365.155 397.777C365.586 397.751 365.917 397.408 365.894 397.011C365.872 396.614 365.504 396.313 365.073 396.339C364.642 396.365 364.311 396.708 364.334 397.105C364.357 397.502 364.724 397.803 365.155 397.777Z" fill="#FFB655"/>
<path d="M361.073 403.883C361.504 403.857 361.835 403.514 361.812 403.117C361.79 402.72 361.422 402.419 360.991 402.445C360.56 402.471 360.229 402.814 360.252 403.211C360.275 403.608 360.642 403.909 361.073 403.883Z" fill="#FFB655"/>
<path d="M362.78 392.618C363.211 392.592 363.542 392.249 363.519 391.852C363.497 391.455 363.129 391.154 362.698 391.18C362.267 391.206 361.936 391.549 361.959 391.946C361.982 392.343 362.349 392.644 362.78 392.618Z" fill="#FFB655"/>
<path d="M372.741 400.704C373.172 400.678 373.503 400.335 373.48 399.938C373.458 399.541 373.09 399.24 372.659 399.266C372.228 399.292 371.897 399.635 371.92 400.032C371.943 400.429 372.31 400.73 372.741 400.704Z" fill="#FFB655"/>
</g>
<g clip-path="url(#clip2)">
<path d="M555.596 398.888L553.853 388.294C552.132 377.832 541.434 370.883 530.081 372.852C518.727 374.821 510.846 384.991 512.567 395.453L513.633 401.933C514.007 404.205 516.308 405.7 518.774 405.273L555.596 398.888Z" fill="#FFA733"/>
<path d="M522.634 370.399C520.444 370.622 518.691 371.975 517.939 373.725C517.623 374.46 517.001 375.068 516.208 375.361C515.232 375.722 514.344 376.334 513.67 377.18C512.602 378.52 512.304 380.152 512.707 381.612C512.93 382.422 512.745 383.293 512.181 383.973C511.089 385.288 510.615 387.028 511.094 388.761C511.771 391.211 514.269 392.86 517.02 392.667C520.601 392.417 528.949 377.231 528.444 374.442C527.981 371.891 525.435 370.113 522.634 370.399Z" fill="#AA6100"/>
<path d="M522.633 370.399C520.443 370.623 518.69 371.975 517.938 373.725C517.622 374.461 517 375.069 516.207 375.362C515.538 375.609 514.911 375.974 514.365 376.452C513.795 380.004 514.552 385.021 521.072 389.261C524.747 384.551 528.799 376.41 528.443 374.442C527.98 371.891 525.434 370.113 522.633 370.399Z" fill="#CC7400"/>
<path d="M520.702 404.939C523.456 404.462 525.351 402.017 524.933 399.479C524.516 396.942 521.944 395.271 519.19 395.749C516.436 396.226 514.542 398.671 514.959 401.209C515.377 403.747 517.948 405.417 520.702 404.939Z" fill="#D80027"/>
<path d="M519.195 395.748C516.919 396.143 515.232 397.88 514.949 399.904C515.864 401.72 518.013 402.793 520.289 402.398C522.565 402.003 524.252 400.266 524.534 398.242C523.62 396.426 521.471 395.353 519.195 395.748Z" fill="#C70024"/>
<path d="M519.694 398.818C522.449 398.341 524.343 395.896 523.925 393.358C523.508 390.82 520.937 389.15 518.182 389.628C515.428 390.105 513.534 392.55 513.951 395.088C514.369 397.626 516.94 399.296 519.694 398.818Z" fill="#FF3F62"/>
<path d="M513.926 394.911C514.986 396.308 516.869 397.073 518.846 396.73C521.536 396.263 523.404 393.921 523.101 391.447C522.042 390.05 520.159 389.286 518.181 389.628C515.491 390.095 513.623 392.438 513.926 394.911Z" fill="#FF0C38"/>
<path d="M529.017 403.498L548.91 400.049C549.26 399.414 549.634 398.814 550.109 398.345C551.624 396.851 554.635 396.228 555.605 394.376C556.559 392.556 555.189 390.069 555.523 388.03C555.844 386.072 557.993 383.973 557.656 381.927C557.32 379.881 554.618 378.623 553.689 376.882C552.722 375.069 553.219 372.258 551.737 370.861C550.227 369.438 547.184 369.865 545.276 368.965C543.371 368.066 542.008 365.563 539.843 365.277C537.743 365 535.525 367.009 533.307 367.393C531.09 367.778 528.353 366.628 526.458 367.598C524.504 368.598 524.018 371.421 522.506 372.913C520.992 374.406 517.981 375.029 517.01 376.882C516.056 378.701 517.426 381.189 517.092 383.227C516.771 385.185 514.622 387.284 514.959 389.33C515.295 391.376 517.997 392.634 518.926 394.375C519.893 396.188 519.396 399 520.878 400.397C522.388 401.82 525.431 401.393 527.339 402.293C527.938 402.575 528.484 403.017 529.017 403.498Z" fill="#91DC5A"/>
<path d="M548.906 400.049C549.256 399.414 549.63 398.814 550.106 398.345C551.62 396.852 554.631 396.228 555.602 394.376C556.555 392.556 555.186 390.069 555.52 388.03C555.84 386.072 557.99 383.973 557.653 381.927C557.316 379.881 554.615 378.623 553.686 376.882C552.718 375.069 553.216 372.258 551.733 370.861C550.224 369.438 547.18 369.865 545.272 368.965C543.367 368.066 542.004 365.563 539.839 365.277C537.739 365 535.522 367.009 533.304 367.393C531.086 367.778 528.349 366.628 526.454 367.598C524.753 368.468 524.164 370.722 523.042 372.274C523.135 374.395 522.963 376.662 522.078 378.116C520.005 381.522 520.911 387.215 524.985 389.292C525.06 389.331 529.727 398.288 532.155 402.953L548.906 400.049Z" fill="#B6E892"/>
<path d="M539.472 371.224C528.118 373.193 520.237 383.363 521.958 393.825L523.136 400.984C523.233 401.944 523.076 404.528 518.775 405.273L558.405 398.402C562.04 397.772 564.541 394.545 563.989 391.195L563.244 386.667C561.523 376.205 550.826 369.256 539.472 371.224Z" fill="#FFC477"/>
<path d="M535.543 402.366C539.844 401.62 540.001 399.037 539.904 398.077L538.726 390.918C537.457 383.202 541.41 375.646 548.127 371.421C545.388 370.806 542.453 370.707 539.472 371.224C528.118 373.193 520.237 383.363 521.958 393.825L523.136 400.984C523.233 401.944 523.076 404.528 518.775 405.273L558.405 398.402C558.405 398.402 558.405 398.402 558.405 398.402L535.543 402.366Z" fill="#FFB655"/>
<path d="M546.458 389.059C547.309 388.912 547.895 388.156 547.766 387.372C547.637 386.587 546.842 386.071 545.991 386.219C545.139 386.366 544.554 387.122 544.683 387.906C544.812 388.691 545.607 389.207 546.458 389.059Z" fill="#FFB655"/>
<path d="M555.45 385.145C556.301 384.997 556.887 384.242 556.758 383.457C556.629 382.673 555.834 382.157 554.983 382.304C554.131 382.452 553.546 383.207 553.675 383.992C553.804 384.776 554.599 385.292 555.45 385.145Z" fill="#FFB655"/>
<path d="M553.845 392.246C554.696 392.098 555.281 391.343 555.152 390.558C555.023 389.774 554.229 389.258 553.377 389.405C552.526 389.553 551.941 390.309 552.07 391.093C552.199 391.877 552.993 392.394 553.845 392.246Z" fill="#FFB655"/>
<path d="M551.473 387.455C551.899 387.381 552.191 387.004 552.127 386.611C552.062 386.219 551.665 385.961 551.239 386.035C550.814 386.109 550.521 386.486 550.586 386.879C550.65 387.271 551.047 387.529 551.473 387.455Z" fill="#FFB655"/>
<path d="M548.059 393.98C548.485 393.906 548.777 393.528 548.713 393.136C548.648 392.744 548.251 392.486 547.825 392.559C547.4 392.633 547.107 393.011 547.172 393.403C547.236 393.795 547.633 394.053 548.059 393.98Z" fill="#FFB655"/>
<path d="M548.563 382.592C548.988 382.518 549.281 382.14 549.217 381.748C549.152 381.356 548.755 381.098 548.329 381.171C547.904 381.245 547.611 381.623 547.675 382.015C547.74 382.407 548.137 382.665 548.563 382.592Z" fill="#FFB655"/>
<path d="M559.321 389.52C559.746 389.447 560.039 389.069 559.974 388.677C559.91 388.284 559.513 388.026 559.087 388.1C558.661 388.174 558.369 388.552 558.433 388.944C558.498 389.336 558.895 389.594 559.321 389.52Z" fill="#FFB655"/>
</g>
</g>
<defs>
<clipPath id="clip0">
<rect width="821" height="636" fill="white"/>
</clipPath>
<clipPath id="clip1">
<rect width="51.7973" height="47.7199" fill="white" transform="matrix(0.998192 -0.0601102 0.0570454 0.998372 323.465 370.361)"/>
</clipPath>
<clipPath id="clip2">
<rect width="51.8313" height="47.6903" fill="white" transform="matrix(0.985299 -0.170841 0.162338 0.986735 507.129 364.846)"/>
</clipPath>
</defs>
</svg>
